<mxfile host="Electron" agent="Mozilla/5.0 (Windows NT 10.0; Win64; x64) AppleWebKit/537.36 (KHTML, like Gecko) draw.io/24.7.17 Chrome/128.0.6613.36 Electron/32.0.1 Safari/537.36" version="24.7.17" pages="2">
  <diagram name="Сторінка-1" id="vAoOA7m_5L3I1epBgb9X">
    <mxGraphModel dx="2355" dy="1593" grid="1" gridSize="10" guides="1" tooltips="1" connect="1" arrows="1" fold="1" page="1" pageScale="1" pageWidth="1169" pageHeight="827" math="0" shadow="0">
      <root>
        <mxCell id="0" />
        <mxCell id="1" parent="0" />
        <mxCell id="OfuGCOSbP7AGfOjfbvAA-1" style="edgeStyle=orthogonalEdgeStyle;rounded=0;orthogonalLoop=1;jettySize=auto;html=1;exitX=0;exitY=0;exitDx=0;exitDy=0;entryX=1;entryY=0.5;entryDx=0;entryDy=0;" parent="1" source="OfuGCOSbP7AGfOjfbvAA-7" target="OfuGCOSbP7AGfOjfbvAA-8" edge="1">
          <mxGeometry relative="1" as="geometry" />
        </mxCell>
        <mxCell id="OfuGCOSbP7AGfOjfbvAA-2" style="edgeStyle=orthogonalEdgeStyle;rounded=0;orthogonalLoop=1;jettySize=auto;html=1;exitX=0;exitY=0.25;exitDx=0;exitDy=0;entryX=1;entryY=0.5;entryDx=0;entryDy=0;" parent="1" source="OfuGCOSbP7AGfOjfbvAA-7" target="OfuGCOSbP7AGfOjfbvAA-9" edge="1">
          <mxGeometry relative="1" as="geometry" />
        </mxCell>
        <mxCell id="OfuGCOSbP7AGfOjfbvAA-3" style="edgeStyle=orthogonalEdgeStyle;rounded=0;orthogonalLoop=1;jettySize=auto;html=1;exitX=0;exitY=0.5;exitDx=0;exitDy=0;entryX=1;entryY=0.5;entryDx=0;entryDy=0;" parent="1" source="OfuGCOSbP7AGfOjfbvAA-7" target="OfuGCOSbP7AGfOjfbvAA-10" edge="1">
          <mxGeometry relative="1" as="geometry" />
        </mxCell>
        <mxCell id="OfuGCOSbP7AGfOjfbvAA-4" style="edgeStyle=orthogonalEdgeStyle;rounded=0;orthogonalLoop=1;jettySize=auto;html=1;exitX=0;exitY=0.75;exitDx=0;exitDy=0;entryX=1;entryY=0.5;entryDx=0;entryDy=0;" parent="1" source="OfuGCOSbP7AGfOjfbvAA-7" target="OfuGCOSbP7AGfOjfbvAA-11" edge="1">
          <mxGeometry relative="1" as="geometry" />
        </mxCell>
        <mxCell id="OfuGCOSbP7AGfOjfbvAA-89" style="edgeStyle=orthogonalEdgeStyle;rounded=0;orthogonalLoop=1;jettySize=auto;html=1;exitX=0;exitY=1;exitDx=0;exitDy=0;entryX=1;entryY=0.5;entryDx=0;entryDy=0;" parent="1" source="OfuGCOSbP7AGfOjfbvAA-7" target="OfuGCOSbP7AGfOjfbvAA-88" edge="1">
          <mxGeometry relative="1" as="geometry" />
        </mxCell>
        <mxCell id="OfuGCOSbP7AGfOjfbvAA-147" style="edgeStyle=orthogonalEdgeStyle;rounded=0;orthogonalLoop=1;jettySize=auto;html=1;exitX=0.5;exitY=0;exitDx=0;exitDy=0;entryX=1;entryY=0.5;entryDx=0;entryDy=0;" parent="1" source="OfuGCOSbP7AGfOjfbvAA-7" target="OfuGCOSbP7AGfOjfbvAA-146" edge="1">
          <mxGeometry relative="1" as="geometry" />
        </mxCell>
        <mxCell id="OfuGCOSbP7AGfOjfbvAA-7" value="&lt;font color=&quot;#080808&quot;&gt;Estudiantes&lt;/font&gt;" style="rounded=1;whiteSpace=wrap;html=1;fillColor=#cce5ff;strokeColor=#36393d;" parent="1" vertex="1">
          <mxGeometry x="395" y="642" width="120" height="60" as="geometry" />
        </mxCell>
        <mxCell id="OfuGCOSbP7AGfOjfbvAA-8" value="&lt;font color=&quot;#080808&quot;&gt;Nombre&lt;/font&gt;" style="rounded=1;whiteSpace=wrap;html=1;fillColor=#bac8d3;strokeColor=#23445d;" parent="1" vertex="1">
          <mxGeometry x="255" y="587" width="100" height="40" as="geometry" />
        </mxCell>
        <mxCell id="OfuGCOSbP7AGfOjfbvAA-9" value="&lt;font color=&quot;#080808&quot;&gt;Apeido&lt;/font&gt;" style="rounded=1;whiteSpace=wrap;html=1;fillColor=#bac8d3;strokeColor=#23445d;" parent="1" vertex="1">
          <mxGeometry x="255" y="637" width="100" height="40" as="geometry" />
        </mxCell>
        <mxCell id="OfuGCOSbP7AGfOjfbvAA-10" value="&lt;font color=&quot;#080808&quot;&gt;Matricula&lt;/font&gt;" style="rounded=1;whiteSpace=wrap;html=1;fillColor=#bac8d3;strokeColor=#23445d;" parent="1" vertex="1">
          <mxGeometry x="255" y="687" width="100" height="40" as="geometry" />
        </mxCell>
        <mxCell id="OfuGCOSbP7AGfOjfbvAA-11" value="&lt;font color=&quot;#080808&quot;&gt;Carrera&lt;/font&gt;" style="rounded=1;whiteSpace=wrap;html=1;fillColor=#bac8d3;strokeColor=#23445d;" parent="1" vertex="1">
          <mxGeometry x="255" y="737" width="100" height="40" as="geometry" />
        </mxCell>
        <mxCell id="OfuGCOSbP7AGfOjfbvAA-88" value="&lt;font color=&quot;#080808&quot;&gt;DNI(CP)&lt;/font&gt;" style="rounded=1;whiteSpace=wrap;html=1;fillColor=#bac8d3;strokeColor=#23445d;" parent="1" vertex="1">
          <mxGeometry x="255" y="787" width="100" height="40" as="geometry" />
        </mxCell>
        <mxCell id="OfuGCOSbP7AGfOjfbvAA-140" style="edgeStyle=orthogonalEdgeStyle;rounded=0;orthogonalLoop=1;jettySize=auto;html=1;exitX=0;exitY=0;exitDx=0;exitDy=0;entryX=0.75;entryY=1;entryDx=0;entryDy=0;" parent="1" source="OfuGCOSbP7AGfOjfbvAA-95" target="OfuGCOSbP7AGfOjfbvAA-98" edge="1">
          <mxGeometry relative="1" as="geometry" />
        </mxCell>
        <mxCell id="OfuGCOSbP7AGfOjfbvAA-141" style="edgeStyle=orthogonalEdgeStyle;rounded=0;orthogonalLoop=1;jettySize=auto;html=1;exitX=0.25;exitY=0;exitDx=0;exitDy=0;entryX=0.75;entryY=1;entryDx=0;entryDy=0;" parent="1" source="OfuGCOSbP7AGfOjfbvAA-95" target="OfuGCOSbP7AGfOjfbvAA-96" edge="1">
          <mxGeometry relative="1" as="geometry" />
        </mxCell>
        <mxCell id="OfuGCOSbP7AGfOjfbvAA-142" style="edgeStyle=orthogonalEdgeStyle;rounded=0;orthogonalLoop=1;jettySize=auto;html=1;exitX=0.75;exitY=0;exitDx=0;exitDy=0;entryX=0.25;entryY=1;entryDx=0;entryDy=0;" parent="1" source="OfuGCOSbP7AGfOjfbvAA-95" target="OfuGCOSbP7AGfOjfbvAA-97" edge="1">
          <mxGeometry relative="1" as="geometry" />
        </mxCell>
        <mxCell id="OfuGCOSbP7AGfOjfbvAA-143" style="edgeStyle=orthogonalEdgeStyle;rounded=0;orthogonalLoop=1;jettySize=auto;html=1;exitX=1;exitY=0;exitDx=0;exitDy=0;entryX=0.176;entryY=0.988;entryDx=0;entryDy=0;entryPerimeter=0;" parent="1" source="OfuGCOSbP7AGfOjfbvAA-95" target="OfuGCOSbP7AGfOjfbvAA-100" edge="1">
          <mxGeometry relative="1" as="geometry">
            <Array as="points">
              <mxPoint x="480" y="122" />
              <mxPoint x="480" y="97" />
            </Array>
          </mxGeometry>
        </mxCell>
        <mxCell id="OfuGCOSbP7AGfOjfbvAA-144" style="edgeStyle=orthogonalEdgeStyle;rounded=0;orthogonalLoop=1;jettySize=auto;html=1;exitX=0.75;exitY=1;exitDx=0;exitDy=0;entryX=0;entryY=0.5;entryDx=0;entryDy=0;" parent="1" source="OfuGCOSbP7AGfOjfbvAA-95" target="OfuGCOSbP7AGfOjfbvAA-138" edge="1">
          <mxGeometry relative="1" as="geometry" />
        </mxCell>
        <mxCell id="OfuGCOSbP7AGfOjfbvAA-95" value="&lt;font color=&quot;#080808&quot;&gt;Profesores&lt;/font&gt;" style="rounded=1;whiteSpace=wrap;html=1;fillColor=#cce5ff;strokeColor=#36393d;" parent="1" vertex="1">
          <mxGeometry x="345" y="122" width="120" height="60" as="geometry" />
        </mxCell>
        <mxCell id="OfuGCOSbP7AGfOjfbvAA-96" value="&lt;font color=&quot;#080808&quot;&gt;Nombre&lt;/font&gt;" style="rounded=1;whiteSpace=wrap;html=1;fillColor=#bac8d3;strokeColor=#23445d;" parent="1" vertex="1">
          <mxGeometry x="300" y="2" width="100" height="40" as="geometry" />
        </mxCell>
        <mxCell id="OfuGCOSbP7AGfOjfbvAA-97" value="&lt;font color=&quot;#080808&quot;&gt;Apeido&lt;/font&gt;" style="rounded=1;whiteSpace=wrap;html=1;fillColor=#bac8d3;strokeColor=#23445d;" parent="1" vertex="1">
          <mxGeometry x="410" y="2" width="100" height="40" as="geometry" />
        </mxCell>
        <mxCell id="OfuGCOSbP7AGfOjfbvAA-98" value="&lt;font color=&quot;#080808&quot;&gt;Departamento&lt;/font&gt;" style="rounded=1;whiteSpace=wrap;html=1;fillColor=#bac8d3;strokeColor=#23445d;" parent="1" vertex="1">
          <mxGeometry x="250" y="57" width="100" height="40" as="geometry" />
        </mxCell>
        <mxCell id="OfuGCOSbP7AGfOjfbvAA-100" value="&lt;font color=&quot;#080808&quot;&gt;DNI(CP)&lt;/font&gt;" style="rounded=1;whiteSpace=wrap;html=1;fillColor=#bac8d3;strokeColor=#23445d;" parent="1" vertex="1">
          <mxGeometry x="462" y="57" width="100" height="40" as="geometry" />
        </mxCell>
        <mxCell id="OfuGCOSbP7AGfOjfbvAA-111" style="edgeStyle=orthogonalEdgeStyle;rounded=0;orthogonalLoop=1;jettySize=auto;html=1;exitX=0;exitY=0.5;exitDx=0;exitDy=0;entryX=1;entryY=0.5;entryDx=0;entryDy=0;" parent="1" source="OfuGCOSbP7AGfOjfbvAA-101" target="OfuGCOSbP7AGfOjfbvAA-110" edge="1">
          <mxGeometry relative="1" as="geometry" />
        </mxCell>
        <mxCell id="OfuGCOSbP7AGfOjfbvAA-161" style="edgeStyle=orthogonalEdgeStyle;rounded=0;orthogonalLoop=1;jettySize=auto;html=1;exitX=1;exitY=0;exitDx=0;exitDy=0;entryX=0;entryY=0.5;entryDx=0;entryDy=0;" parent="1" source="OfuGCOSbP7AGfOjfbvAA-101" target="OfuGCOSbP7AGfOjfbvAA-130" edge="1">
          <mxGeometry relative="1" as="geometry" />
        </mxCell>
        <mxCell id="OfuGCOSbP7AGfOjfbvAA-162" style="edgeStyle=orthogonalEdgeStyle;rounded=0;orthogonalLoop=1;jettySize=auto;html=1;exitX=1;exitY=0.25;exitDx=0;exitDy=0;entryX=0;entryY=0.75;entryDx=0;entryDy=0;" parent="1" source="OfuGCOSbP7AGfOjfbvAA-101" target="OfuGCOSbP7AGfOjfbvAA-127" edge="1">
          <mxGeometry relative="1" as="geometry" />
        </mxCell>
        <mxCell id="OfuGCOSbP7AGfOjfbvAA-163" style="edgeStyle=orthogonalEdgeStyle;rounded=0;orthogonalLoop=1;jettySize=auto;html=1;exitX=1;exitY=0.75;exitDx=0;exitDy=0;entryX=0;entryY=0.25;entryDx=0;entryDy=0;" parent="1" source="OfuGCOSbP7AGfOjfbvAA-101" target="OfuGCOSbP7AGfOjfbvAA-102" edge="1">
          <mxGeometry relative="1" as="geometry" />
        </mxCell>
        <mxCell id="OfuGCOSbP7AGfOjfbvAA-164" style="edgeStyle=orthogonalEdgeStyle;rounded=0;orthogonalLoop=1;jettySize=auto;html=1;exitX=1;exitY=1;exitDx=0;exitDy=0;entryX=0;entryY=0.5;entryDx=0;entryDy=0;" parent="1" source="OfuGCOSbP7AGfOjfbvAA-101" target="OfuGCOSbP7AGfOjfbvAA-103" edge="1">
          <mxGeometry relative="1" as="geometry" />
        </mxCell>
        <mxCell id="OfuGCOSbP7AGfOjfbvAA-101" value="&lt;font color=&quot;#080808&quot;&gt;Cursos&lt;/font&gt;" style="rounded=1;whiteSpace=wrap;html=1;fillColor=#cce5ff;strokeColor=#36393d;" parent="1" vertex="1">
          <mxGeometry x="840" y="317" width="120" height="60" as="geometry" />
        </mxCell>
        <mxCell id="OfuGCOSbP7AGfOjfbvAA-102" value="&lt;font color=&quot;#080808&quot;&gt;Descripcion de curso&lt;/font&gt;" style="rounded=1;whiteSpace=wrap;html=1;fillColor=#bac8d3;strokeColor=#23445d;" parent="1" vertex="1">
          <mxGeometry x="995" y="352.75" width="100" height="40" as="geometry" />
        </mxCell>
        <mxCell id="OfuGCOSbP7AGfOjfbvAA-103" value="&lt;font color=&quot;#080808&quot;&gt;ID_curso&lt;/font&gt;&lt;span style=&quot;color: rgb(8, 8, 8);&quot;&gt;(CP)&lt;/span&gt;" style="rounded=1;whiteSpace=wrap;html=1;fillColor=#bac8d3;strokeColor=#23445d;" parent="1" vertex="1">
          <mxGeometry x="995" y="403.75" width="100" height="40" as="geometry" />
        </mxCell>
        <mxCell id="OfuGCOSbP7AGfOjfbvAA-112" style="edgeStyle=orthogonalEdgeStyle;rounded=0;orthogonalLoop=1;jettySize=auto;html=1;exitX=1;exitY=0.5;exitDx=0;exitDy=0;entryX=0;entryY=0.5;entryDx=0;entryDy=0;" parent="1" source="OfuGCOSbP7AGfOjfbvAA-104" target="OfuGCOSbP7AGfOjfbvAA-110" edge="1">
          <mxGeometry relative="1" as="geometry" />
        </mxCell>
        <mxCell id="OfuGCOSbP7AGfOjfbvAA-123" style="edgeStyle=orthogonalEdgeStyle;rounded=0;orthogonalLoop=1;jettySize=auto;html=1;exitX=0;exitY=0.25;exitDx=0;exitDy=0;" parent="1" source="OfuGCOSbP7AGfOjfbvAA-104" target="OfuGCOSbP7AGfOjfbvAA-105" edge="1">
          <mxGeometry relative="1" as="geometry" />
        </mxCell>
        <mxCell id="OfuGCOSbP7AGfOjfbvAA-124" style="edgeStyle=orthogonalEdgeStyle;rounded=0;orthogonalLoop=1;jettySize=auto;html=1;exitX=0;exitY=0.75;exitDx=0;exitDy=0;" parent="1" source="OfuGCOSbP7AGfOjfbvAA-104" target="OfuGCOSbP7AGfOjfbvAA-106" edge="1">
          <mxGeometry relative="1" as="geometry" />
        </mxCell>
        <mxCell id="OfuGCOSbP7AGfOjfbvAA-148" style="edgeStyle=orthogonalEdgeStyle;rounded=0;orthogonalLoop=1;jettySize=auto;html=1;exitX=0.5;exitY=1;exitDx=0;exitDy=0;entryX=0;entryY=0.5;entryDx=0;entryDy=0;" parent="1" source="OfuGCOSbP7AGfOjfbvAA-104" target="OfuGCOSbP7AGfOjfbvAA-146" edge="1">
          <mxGeometry relative="1" as="geometry" />
        </mxCell>
        <mxCell id="OfuGCOSbP7AGfOjfbvAA-104" value="&lt;font color=&quot;#080808&quot;&gt;Asignaturas&lt;/font&gt;" style="rounded=1;whiteSpace=wrap;html=1;fillColor=#cce5ff;strokeColor=#36393d;" parent="1" vertex="1">
          <mxGeometry x="395" y="317" width="120" height="60" as="geometry" />
        </mxCell>
        <mxCell id="OfuGCOSbP7AGfOjfbvAA-105" value="&lt;font color=&quot;#080808&quot;&gt;Descripcion&lt;/font&gt;" style="rounded=1;whiteSpace=wrap;html=1;fillColor=#bac8d3;strokeColor=#23445d;" parent="1" vertex="1">
          <mxGeometry x="255" y="302" width="100" height="40" as="geometry" />
        </mxCell>
        <mxCell id="OfuGCOSbP7AGfOjfbvAA-106" value="&lt;font color=&quot;#080808&quot;&gt;ID_asig&lt;/font&gt;&lt;span style=&quot;color: rgb(8, 8, 8);&quot;&gt;(CP)&lt;/span&gt;" style="rounded=1;whiteSpace=wrap;html=1;fillColor=#bac8d3;strokeColor=#23445d;" parent="1" vertex="1">
          <mxGeometry x="255" y="352" width="100" height="40" as="geometry" />
        </mxCell>
        <mxCell id="OfuGCOSbP7AGfOjfbvAA-116" style="edgeStyle=orthogonalEdgeStyle;rounded=0;orthogonalLoop=1;jettySize=auto;html=1;exitX=0;exitY=0.5;exitDx=0;exitDy=0;" parent="1" source="OfuGCOSbP7AGfOjfbvAA-107" target="OfuGCOSbP7AGfOjfbvAA-115" edge="1">
          <mxGeometry relative="1" as="geometry" />
        </mxCell>
        <mxCell id="OfuGCOSbP7AGfOjfbvAA-117" style="edgeStyle=orthogonalEdgeStyle;rounded=0;orthogonalLoop=1;jettySize=auto;html=1;exitX=1;exitY=0.5;exitDx=0;exitDy=0;" parent="1" source="OfuGCOSbP7AGfOjfbvAA-107" target="OfuGCOSbP7AGfOjfbvAA-114" edge="1">
          <mxGeometry relative="1" as="geometry" />
        </mxCell>
        <mxCell id="OfuGCOSbP7AGfOjfbvAA-137" style="edgeStyle=orthogonalEdgeStyle;rounded=0;orthogonalLoop=1;jettySize=auto;html=1;exitX=1;exitY=0;exitDx=0;exitDy=0;entryX=0;entryY=1;entryDx=0;entryDy=0;" parent="1" source="OfuGCOSbP7AGfOjfbvAA-107" target="OfuGCOSbP7AGfOjfbvAA-136" edge="1">
          <mxGeometry relative="1" as="geometry" />
        </mxCell>
        <mxCell id="OfuGCOSbP7AGfOjfbvAA-158" style="edgeStyle=orthogonalEdgeStyle;rounded=0;orthogonalLoop=1;jettySize=auto;html=1;exitX=0;exitY=1;exitDx=0;exitDy=0;entryX=0;entryY=0.5;entryDx=0;entryDy=0;" parent="1" source="OfuGCOSbP7AGfOjfbvAA-107" target="OfuGCOSbP7AGfOjfbvAA-119" edge="1">
          <mxGeometry relative="1" as="geometry" />
        </mxCell>
        <mxCell id="OfuGCOSbP7AGfOjfbvAA-159" style="edgeStyle=orthogonalEdgeStyle;rounded=0;orthogonalLoop=1;jettySize=auto;html=1;exitX=0;exitY=1;exitDx=0;exitDy=0;entryX=0;entryY=0.5;entryDx=0;entryDy=0;" parent="1" source="OfuGCOSbP7AGfOjfbvAA-107" target="OfuGCOSbP7AGfOjfbvAA-120" edge="1">
          <mxGeometry relative="1" as="geometry" />
        </mxCell>
        <mxCell id="OfuGCOSbP7AGfOjfbvAA-160" style="edgeStyle=orthogonalEdgeStyle;rounded=0;orthogonalLoop=1;jettySize=auto;html=1;exitX=0;exitY=1;exitDx=0;exitDy=0;entryX=0;entryY=0.5;entryDx=0;entryDy=0;" parent="1" source="OfuGCOSbP7AGfOjfbvAA-107" target="OfuGCOSbP7AGfOjfbvAA-129" edge="1">
          <mxGeometry relative="1" as="geometry" />
        </mxCell>
        <mxCell id="OfuGCOSbP7AGfOjfbvAA-107" value="&lt;font color=&quot;#080808&quot;&gt;Horaio&lt;/font&gt;" style="rounded=1;whiteSpace=wrap;html=1;fillColor=#cce5ff;strokeColor=#36393d;" parent="1" vertex="1">
          <mxGeometry x="650" y="482" width="120" height="60" as="geometry" />
        </mxCell>
        <mxCell id="OfuGCOSbP7AGfOjfbvAA-108" value="&lt;font color=&quot;#080808&quot;&gt;ID_aula(CP)&lt;/font&gt;" style="rounded=1;whiteSpace=wrap;html=1;fillColor=#bac8d3;strokeColor=#23445d;" parent="1" vertex="1">
          <mxGeometry x="740" y="152" width="100" height="40" as="geometry" />
        </mxCell>
        <mxCell id="OfuGCOSbP7AGfOjfbvAA-109" value="&lt;font color=&quot;#080808&quot;&gt;Cantidad maxima de estudiantes&lt;/font&gt;" style="rounded=1;whiteSpace=wrap;html=1;fillColor=#bac8d3;strokeColor=#23445d;" parent="1" vertex="1">
          <mxGeometry x="585" y="152" width="100" height="40" as="geometry" />
        </mxCell>
        <mxCell id="OfuGCOSbP7AGfOjfbvAA-113" style="edgeStyle=orthogonalEdgeStyle;rounded=0;orthogonalLoop=1;jettySize=auto;html=1;exitX=0.5;exitY=1;exitDx=0;exitDy=0;" parent="1" source="OfuGCOSbP7AGfOjfbvAA-110" target="OfuGCOSbP7AGfOjfbvAA-107" edge="1">
          <mxGeometry relative="1" as="geometry" />
        </mxCell>
        <mxCell id="OfuGCOSbP7AGfOjfbvAA-110" value="&lt;font color=&quot;#000000&quot;&gt;N:M:P&lt;/font&gt;" style="rhombus;whiteSpace=wrap;html=1;fillColor=#e6edf5;fontColor=#ffffff;strokeColor=#006EAF;" parent="1" vertex="1">
          <mxGeometry x="670" y="319" width="80" height="55" as="geometry" />
        </mxCell>
        <mxCell id="OfuGCOSbP7AGfOjfbvAA-114" value="&lt;font color=&quot;#080808&quot;&gt;ID_curso&lt;/font&gt;&lt;span style=&quot;color: rgb(8, 8, 8);&quot;&gt;(CF)&lt;/span&gt;" style="rounded=1;whiteSpace=wrap;html=1;fillColor=#bac8d3;strokeColor=#23445d;" parent="1" vertex="1">
          <mxGeometry x="810" y="492" width="100" height="40" as="geometry" />
        </mxCell>
        <mxCell id="OfuGCOSbP7AGfOjfbvAA-115" value="&lt;font color=&quot;#080808&quot;&gt;ID_asig&lt;/font&gt;&lt;span style=&quot;color: rgb(8, 8, 8);&quot;&gt;(CF)&lt;/span&gt;" style="rounded=1;whiteSpace=wrap;html=1;fillColor=#bac8d3;strokeColor=#23445d;" parent="1" vertex="1">
          <mxGeometry x="585" y="422" width="100" height="40" as="geometry" />
        </mxCell>
        <mxCell id="OfuGCOSbP7AGfOjfbvAA-132" style="edgeStyle=orthogonalEdgeStyle;rounded=0;orthogonalLoop=1;jettySize=auto;html=1;entryX=0.5;entryY=0;entryDx=0;entryDy=0;" parent="1" source="OfuGCOSbP7AGfOjfbvAA-118" target="OfuGCOSbP7AGfOjfbvAA-110" edge="1">
          <mxGeometry relative="1" as="geometry" />
        </mxCell>
        <mxCell id="OfuGCOSbP7AGfOjfbvAA-133" style="edgeStyle=orthogonalEdgeStyle;rounded=0;orthogonalLoop=1;jettySize=auto;html=1;exitX=0.25;exitY=0;exitDx=0;exitDy=0;entryX=1;entryY=1;entryDx=0;entryDy=0;" parent="1" source="OfuGCOSbP7AGfOjfbvAA-118" target="OfuGCOSbP7AGfOjfbvAA-109" edge="1">
          <mxGeometry relative="1" as="geometry" />
        </mxCell>
        <mxCell id="OfuGCOSbP7AGfOjfbvAA-134" style="edgeStyle=orthogonalEdgeStyle;rounded=0;orthogonalLoop=1;jettySize=auto;html=1;exitX=0.5;exitY=0;exitDx=0;exitDy=0;entryX=0.5;entryY=1;entryDx=0;entryDy=0;" parent="1" source="OfuGCOSbP7AGfOjfbvAA-118" target="OfuGCOSbP7AGfOjfbvAA-131" edge="1">
          <mxGeometry relative="1" as="geometry" />
        </mxCell>
        <mxCell id="OfuGCOSbP7AGfOjfbvAA-135" style="edgeStyle=orthogonalEdgeStyle;rounded=0;orthogonalLoop=1;jettySize=auto;html=1;exitX=0.75;exitY=0;exitDx=0;exitDy=0;entryX=0;entryY=1;entryDx=0;entryDy=0;" parent="1" source="OfuGCOSbP7AGfOjfbvAA-118" target="OfuGCOSbP7AGfOjfbvAA-108" edge="1">
          <mxGeometry relative="1" as="geometry" />
        </mxCell>
        <mxCell id="OfuGCOSbP7AGfOjfbvAA-118" value="&lt;font color=&quot;#080808&quot;&gt;Aulas Horaio&lt;/font&gt;" style="rounded=1;whiteSpace=wrap;html=1;fillColor=#cce5ff;strokeColor=#36393d;" parent="1" vertex="1">
          <mxGeometry x="650" y="212" width="120" height="60" as="geometry" />
        </mxCell>
        <mxCell id="OfuGCOSbP7AGfOjfbvAA-119" value="&lt;font color=&quot;#080808&quot;&gt;Hora de inicio&lt;/font&gt;" style="rounded=1;whiteSpace=wrap;html=1;fillColor=#bac8d3;strokeColor=#23445d;" parent="1" vertex="1">
          <mxGeometry x="670" y="562" width="100" height="40" as="geometry" />
        </mxCell>
        <mxCell id="OfuGCOSbP7AGfOjfbvAA-120" value="&lt;font color=&quot;#080808&quot;&gt;Hora de acabo&lt;/font&gt;" style="rounded=1;whiteSpace=wrap;html=1;fillColor=#bac8d3;strokeColor=#23445d;" parent="1" vertex="1">
          <mxGeometry x="670" y="612" width="100" height="40" as="geometry" />
        </mxCell>
        <mxCell id="OfuGCOSbP7AGfOjfbvAA-127" value="&lt;font color=&quot;#080808&quot;&gt;Año&lt;/font&gt;" style="rounded=1;whiteSpace=wrap;html=1;fillColor=#bac8d3;strokeColor=#23445d;" parent="1" vertex="1">
          <mxGeometry x="995" y="302.75" width="100" height="40" as="geometry" />
        </mxCell>
        <mxCell id="OfuGCOSbP7AGfOjfbvAA-129" value="&lt;font color=&quot;#080808&quot;&gt;Dias&lt;/font&gt;" style="rounded=1;whiteSpace=wrap;html=1;fillColor=#bac8d3;strokeColor=#23445d;" parent="1" vertex="1">
          <mxGeometry x="670" y="662" width="100" height="40" as="geometry" />
        </mxCell>
        <mxCell id="OfuGCOSbP7AGfOjfbvAA-130" value="&lt;font color=&quot;#080808&quot;&gt;Semestre&lt;/font&gt;" style="rounded=1;whiteSpace=wrap;html=1;fillColor=#bac8d3;strokeColor=#23445d;" parent="1" vertex="1">
          <mxGeometry x="995" y="252" width="100" height="40" as="geometry" />
        </mxCell>
        <mxCell id="OfuGCOSbP7AGfOjfbvAA-131" value="&lt;font color=&quot;#080808&quot;&gt;Especialidad&lt;/font&gt;" style="rounded=1;whiteSpace=wrap;html=1;fillColor=#bac8d3;strokeColor=#23445d;" parent="1" vertex="1">
          <mxGeometry x="660" y="92" width="100" height="40" as="geometry" />
        </mxCell>
        <mxCell id="OfuGCOSbP7AGfOjfbvAA-136" value="&lt;font color=&quot;#080808&quot;&gt;ID_aula(CF)&lt;/font&gt;" style="rounded=1;whiteSpace=wrap;html=1;fillColor=#bac8d3;strokeColor=#23445d;" parent="1" vertex="1">
          <mxGeometry x="770" y="422" width="100" height="40" as="geometry" />
        </mxCell>
        <mxCell id="OfuGCOSbP7AGfOjfbvAA-145" style="edgeStyle=orthogonalEdgeStyle;rounded=0;orthogonalLoop=1;jettySize=auto;html=1;exitX=1;exitY=0.5;exitDx=0;exitDy=0;" parent="1" source="OfuGCOSbP7AGfOjfbvAA-138" target="OfuGCOSbP7AGfOjfbvAA-104" edge="1">
          <mxGeometry relative="1" as="geometry" />
        </mxCell>
        <mxCell id="OfuGCOSbP7AGfOjfbvAA-138" value="&lt;font color=&quot;#000000&quot;&gt;1:M&lt;/font&gt;" style="rhombus;whiteSpace=wrap;html=1;fillColor=#e6edf5;fontColor=#ffffff;strokeColor=#006EAF;direction=south;" parent="1" vertex="1">
          <mxGeometry x="427.5" y="212" width="55" height="80" as="geometry" />
        </mxCell>
        <mxCell id="OfuGCOSbP7AGfOjfbvAA-152" style="edgeStyle=orthogonalEdgeStyle;rounded=0;orthogonalLoop=1;jettySize=auto;html=1;exitX=0.5;exitY=1;exitDx=0;exitDy=0;entryX=1;entryY=0.5;entryDx=0;entryDy=0;" parent="1" source="OfuGCOSbP7AGfOjfbvAA-146" target="OfuGCOSbP7AGfOjfbvAA-149" edge="1">
          <mxGeometry relative="1" as="geometry" />
        </mxCell>
        <mxCell id="OfuGCOSbP7AGfOjfbvAA-146" value="&lt;font color=&quot;#000000&quot;&gt;N:M&lt;/font&gt;" style="rhombus;whiteSpace=wrap;html=1;fillColor=#e6edf5;fontColor=#ffffff;strokeColor=#006EAF;direction=south;" parent="1" vertex="1">
          <mxGeometry x="427.5" y="439" width="55" height="80" as="geometry" />
        </mxCell>
        <mxCell id="OfuGCOSbP7AGfOjfbvAA-155" style="edgeStyle=orthogonalEdgeStyle;rounded=0;orthogonalLoop=1;jettySize=auto;html=1;exitX=0;exitY=0.75;exitDx=0;exitDy=0;entryX=1;entryY=0.75;entryDx=0;entryDy=0;" parent="1" source="OfuGCOSbP7AGfOjfbvAA-149" target="OfuGCOSbP7AGfOjfbvAA-153" edge="1">
          <mxGeometry relative="1" as="geometry">
            <Array as="points">
              <mxPoint x="190" y="494" />
              <mxPoint x="190" y="539" />
            </Array>
          </mxGeometry>
        </mxCell>
        <mxCell id="OfuGCOSbP7AGfOjfbvAA-157" style="edgeStyle=orthogonalEdgeStyle;rounded=0;orthogonalLoop=1;jettySize=auto;html=1;exitX=0;exitY=0;exitDx=0;exitDy=0;entryX=1;entryY=0.25;entryDx=0;entryDy=0;" parent="1" source="OfuGCOSbP7AGfOjfbvAA-149" target="OfuGCOSbP7AGfOjfbvAA-150" edge="1">
          <mxGeometry relative="1" as="geometry" />
        </mxCell>
        <mxCell id="07jKfMrhhC29BbkwZSfR-1" style="edgeStyle=orthogonalEdgeStyle;rounded=0;orthogonalLoop=1;jettySize=auto;html=1;exitX=0;exitY=0.5;exitDx=0;exitDy=0;entryX=1;entryY=0.5;entryDx=0;entryDy=0;" parent="1" source="OfuGCOSbP7AGfOjfbvAA-149" target="OfuGCOSbP7AGfOjfbvAA-151" edge="1">
          <mxGeometry relative="1" as="geometry" />
        </mxCell>
        <mxCell id="OfuGCOSbP7AGfOjfbvAA-149" value="&lt;font color=&quot;#080808&quot;&gt;Estudiantes Asignaturas&lt;/font&gt;" style="rounded=1;whiteSpace=wrap;html=1;fillColor=#cce5ff;strokeColor=#36393d;" parent="1" vertex="1">
          <mxGeometry x="200" y="449" width="120" height="60" as="geometry" />
        </mxCell>
        <mxCell id="OfuGCOSbP7AGfOjfbvAA-150" value="&lt;font color=&quot;#080808&quot;&gt;ID_asig&lt;/font&gt;&lt;span style=&quot;color: rgb(8, 8, 8);&quot;&gt;(CF)&lt;/span&gt;" style="rounded=1;whiteSpace=wrap;html=1;fillColor=#bac8d3;strokeColor=#23445d;" parent="1" vertex="1">
          <mxGeometry x="50" y="403.75" width="100" height="40" as="geometry" />
        </mxCell>
        <mxCell id="OfuGCOSbP7AGfOjfbvAA-151" value="&lt;font color=&quot;#080808&quot;&gt;DNI(CF)&lt;/font&gt;" style="rounded=1;whiteSpace=wrap;html=1;fillColor=#bac8d3;strokeColor=#23445d;" parent="1" vertex="1">
          <mxGeometry x="50" y="459" width="100" height="40" as="geometry" />
        </mxCell>
        <mxCell id="OfuGCOSbP7AGfOjfbvAA-153" value="&lt;font color=&quot;#080808&quot;&gt;Inscripcion&lt;/font&gt;" style="rounded=1;whiteSpace=wrap;html=1;fillColor=#bac8d3;strokeColor=#23445d;" parent="1" vertex="1">
          <mxGeometry x="50" y="509" width="100" height="40" as="geometry" />
        </mxCell>
        <mxCell id="88P_B-oKcRuSOmOjws9D-1" value="STRING" style="text;html=1;align=center;verticalAlign=middle;resizable=0;points=[];autosize=1;strokeColor=none;fillColor=none;" vertex="1" parent="1">
          <mxGeometry x="185" y="592" width="70" height="30" as="geometry" />
        </mxCell>
        <mxCell id="88P_B-oKcRuSOmOjws9D-2" value="STRING" style="text;html=1;align=center;verticalAlign=middle;resizable=0;points=[];autosize=1;strokeColor=none;fillColor=none;" vertex="1" parent="1">
          <mxGeometry x="185" y="642" width="70" height="30" as="geometry" />
        </mxCell>
        <mxCell id="88P_B-oKcRuSOmOjws9D-3" value="STRING" style="text;html=1;align=center;verticalAlign=middle;resizable=0;points=[];autosize=1;strokeColor=none;fillColor=none;" vertex="1" parent="1">
          <mxGeometry x="185" y="692" width="70" height="30" as="geometry" />
        </mxCell>
        <mxCell id="88P_B-oKcRuSOmOjws9D-4" value="STRING" style="text;html=1;align=center;verticalAlign=middle;resizable=0;points=[];autosize=1;strokeColor=none;fillColor=none;" vertex="1" parent="1">
          <mxGeometry x="185" y="742" width="70" height="30" as="geometry" />
        </mxCell>
        <mxCell id="88P_B-oKcRuSOmOjws9D-5" value="STRING" style="text;html=1;align=center;verticalAlign=middle;resizable=0;points=[];autosize=1;strokeColor=none;fillColor=none;" vertex="1" parent="1">
          <mxGeometry x="185" y="792" width="70" height="30" as="geometry" />
        </mxCell>
        <mxCell id="88P_B-oKcRuSOmOjws9D-6" value="STRING" style="text;html=1;align=center;verticalAlign=middle;resizable=0;points=[];autosize=1;strokeColor=none;fillColor=none;" vertex="1" parent="1">
          <mxGeometry x="-20" y="414" width="70" height="30" as="geometry" />
        </mxCell>
        <mxCell id="88P_B-oKcRuSOmOjws9D-7" value="STRING" style="text;html=1;align=center;verticalAlign=middle;resizable=0;points=[];autosize=1;strokeColor=none;fillColor=none;" vertex="1" parent="1">
          <mxGeometry x="-20" y="464" width="70" height="30" as="geometry" />
        </mxCell>
        <mxCell id="88P_B-oKcRuSOmOjws9D-8" value="DATE" style="text;html=1;align=center;verticalAlign=middle;resizable=0;points=[];autosize=1;strokeColor=none;fillColor=none;" vertex="1" parent="1">
          <mxGeometry y="514" width="50" height="30" as="geometry" />
        </mxCell>
        <mxCell id="88P_B-oKcRuSOmOjws9D-9" value="STRING" style="text;html=1;align=center;verticalAlign=middle;resizable=0;points=[];autosize=1;strokeColor=none;fillColor=none;" vertex="1" parent="1">
          <mxGeometry x="185" y="357.75" width="70" height="30" as="geometry" />
        </mxCell>
        <mxCell id="88P_B-oKcRuSOmOjws9D-10" value="STRING" style="text;html=1;align=center;verticalAlign=middle;resizable=0;points=[];autosize=1;strokeColor=none;fillColor=none;" vertex="1" parent="1">
          <mxGeometry x="185" y="307.75" width="70" height="30" as="geometry" />
        </mxCell>
        <mxCell id="88P_B-oKcRuSOmOjws9D-11" value="INT" style="text;html=1;align=center;verticalAlign=middle;resizable=0;points=[];autosize=1;strokeColor=none;fillColor=none;" vertex="1" parent="1">
          <mxGeometry x="1100" y="257" width="40" height="30" as="geometry" />
        </mxCell>
        <mxCell id="88P_B-oKcRuSOmOjws9D-12" value="ENTEGER" style="text;html=1;align=center;verticalAlign=middle;resizable=0;points=[];autosize=1;strokeColor=none;fillColor=none;" vertex="1" parent="1">
          <mxGeometry x="1095" y="307.75" width="80" height="30" as="geometry" />
        </mxCell>
        <mxCell id="88P_B-oKcRuSOmOjws9D-13" value="STRING" style="text;html=1;align=center;verticalAlign=middle;resizable=0;points=[];autosize=1;strokeColor=none;fillColor=none;" vertex="1" parent="1">
          <mxGeometry x="1100" y="362" width="70" height="30" as="geometry" />
        </mxCell>
        <mxCell id="88P_B-oKcRuSOmOjws9D-14" value="STRING" style="text;html=1;align=center;verticalAlign=middle;resizable=0;points=[];autosize=1;strokeColor=none;fillColor=none;" vertex="1" parent="1">
          <mxGeometry x="1100" y="414" width="70" height="30" as="geometry" />
        </mxCell>
        <mxCell id="88P_B-oKcRuSOmOjws9D-15" value="FLOAT" style="text;html=1;align=center;verticalAlign=middle;resizable=0;points=[];autosize=1;strokeColor=none;fillColor=none;" vertex="1" parent="1">
          <mxGeometry x="840" y="157" width="60" height="30" as="geometry" />
        </mxCell>
        <mxCell id="88P_B-oKcRuSOmOjws9D-17" value="STRING" style="text;html=1;align=center;verticalAlign=middle;resizable=0;points=[];autosize=1;strokeColor=none;fillColor=none;" vertex="1" parent="1">
          <mxGeometry x="675" y="62" width="70" height="30" as="geometry" />
        </mxCell>
        <mxCell id="88P_B-oKcRuSOmOjws9D-19" value="" style="edgeStyle=orthogonalEdgeStyle;rounded=0;orthogonalLoop=1;jettySize=auto;html=1;" edge="1" parent="1" source="88P_B-oKcRuSOmOjws9D-18" target="OfuGCOSbP7AGfOjfbvAA-100">
          <mxGeometry relative="1" as="geometry" />
        </mxCell>
        <mxCell id="88P_B-oKcRuSOmOjws9D-18" value="INT" style="text;html=1;align=center;verticalAlign=middle;resizable=0;points=[];autosize=1;strokeColor=none;fillColor=none;" vertex="1" parent="1">
          <mxGeometry x="545" y="157" width="40" height="30" as="geometry" />
        </mxCell>
        <mxCell id="88P_B-oKcRuSOmOjws9D-20" value="STRING" style="text;html=1;align=center;verticalAlign=middle;resizable=0;points=[];autosize=1;strokeColor=none;fillColor=none;" vertex="1" parent="1">
          <mxGeometry x="420" y="-28" width="70" height="30" as="geometry" />
        </mxCell>
        <mxCell id="88P_B-oKcRuSOmOjws9D-21" value="STRING" style="text;html=1;align=center;verticalAlign=middle;resizable=0;points=[];autosize=1;strokeColor=none;fillColor=none;" vertex="1" parent="1">
          <mxGeometry x="320" y="-28" width="70" height="30" as="geometry" />
        </mxCell>
        <mxCell id="88P_B-oKcRuSOmOjws9D-22" value="STRING" style="text;html=1;align=center;verticalAlign=middle;resizable=0;points=[];autosize=1;strokeColor=none;fillColor=none;" vertex="1" parent="1">
          <mxGeometry x="180" y="67" width="70" height="30" as="geometry" />
        </mxCell>
        <mxCell id="88P_B-oKcRuSOmOjws9D-23" value="STRING" style="text;html=1;align=center;verticalAlign=middle;resizable=0;points=[];autosize=1;strokeColor=none;fillColor=none;" vertex="1" parent="1">
          <mxGeometry x="562" y="62" width="70" height="30" as="geometry" />
        </mxCell>
        <mxCell id="88P_B-oKcRuSOmOjws9D-24" value="INT" style="text;html=1;align=center;verticalAlign=middle;resizable=0;points=[];autosize=1;strokeColor=none;fillColor=none;" vertex="1" parent="1">
          <mxGeometry x="770" y="667" width="40" height="30" as="geometry" />
        </mxCell>
        <mxCell id="88P_B-oKcRuSOmOjws9D-25" value="STRING" style="text;html=1;align=center;verticalAlign=middle;resizable=0;points=[];autosize=1;strokeColor=none;fillColor=none;" vertex="1" parent="1">
          <mxGeometry x="910" y="497" width="70" height="30" as="geometry" />
        </mxCell>
        <mxCell id="88P_B-oKcRuSOmOjws9D-26" value="FLOAT" style="text;html=1;align=center;verticalAlign=middle;resizable=0;points=[];autosize=1;strokeColor=none;fillColor=none;" vertex="1" parent="1">
          <mxGeometry x="870" y="429" width="60" height="30" as="geometry" />
        </mxCell>
        <mxCell id="88P_B-oKcRuSOmOjws9D-27" value="STRING" style="text;html=1;align=center;verticalAlign=middle;resizable=0;points=[];autosize=1;strokeColor=none;fillColor=none;" vertex="1" parent="1">
          <mxGeometry x="515" y="427" width="70" height="30" as="geometry" />
        </mxCell>
        <mxCell id="88P_B-oKcRuSOmOjws9D-28" value="TIME" style="text;html=1;align=center;verticalAlign=middle;resizable=0;points=[];autosize=1;strokeColor=none;fillColor=none;" vertex="1" parent="1">
          <mxGeometry x="765" y="617" width="50" height="30" as="geometry" />
        </mxCell>
        <mxCell id="88P_B-oKcRuSOmOjws9D-29" value="TIME" style="text;html=1;align=center;verticalAlign=middle;resizable=0;points=[];autosize=1;strokeColor=none;fillColor=none;" vertex="1" parent="1">
          <mxGeometry x="770" y="567" width="50" height="30" as="geometry" />
        </mxCell>
      </root>
    </mxGraphModel>
  </diagram>
  <diagram name="Сторінка-2" id="UCsKR-12v6zO6Q3VDsxR">
    <mxGraphModel grid="1" page="1" gridSize="10" guides="1" tooltips="1" connect="1" arrows="1" fold="1" pageScale="1" pageWidth="1169" pageHeight="827" math="0" shadow="0">
      <root>
        <mxCell id="0" />
        <mxCell id="1" parent="0" />
      </root>
    </mxGraphModel>
  </diagram>
</mxfile>
